# AST/ASF file generated using VICON BodyLanguage
# -----------------------------------------------
:version 1.10
:name VICON
:units
  mass 1.0
  length 0.45
  angle deg
:documentation
   .ast/.asf automatically generated from VICON data using
   VICON BodyBuilder and BodyLanguage model FoxedUp or BRILLIANT.MOD
:root
   order TX TY TZ RX RY RZ
   axis XYZ
   position 0 0 0  
   orientation 0 0 0 
:bonedata
  begin
     id 1 
     name lhipjoint
     direction 0.624716 -0.669793 0.401383 
     length 2.38238 
     axis 0 0 0  XYZ
  end
  begin
     id 2 
     name lfemur
     direction 0.34202 -0.939693 0  
     length 6.4574  
     axis 0 0 20  XYZ
    dof rx ry rz
    limits (-160.0 20.0)
           (-70.0 70.0)
           (-60.0 70.0)
  end
  begin
     id 3 
     name ltibia
     direction 0.34202 -0.939693 0   
     length 7.68739   
     axis 0 0 20   XYZ
    dof rx
    limits (-10.0 170.0)
  end
  begin
     id 4 
     name lfoot
     direction 0.0681309 -0.187188 0.979959   
     length 2.46615   
     axis -90 7.62852e-016 20   XYZ
    dof rx rz
    limits (-45.0 90.0)
           (-70.0 20.0)
  end
  begin
     id 5 
     name ltoes
     direction 1.53566e-011 -4.21819e-011 1   
     length 1.2376   
     axis -90 7.62852e-016 20   XYZ
    dof rx
    limits (-90.0 20.0)
  end
  begin
     id 6 
     name rhipjoint
     direction -0.644473 -0.655875 0.393043   
     length 2.43293  
     axis 0 0 0  XYZ 
  end
  begin
     id 7 
     name rfemur
     direction -0.34202 -0.939693 0   
     length 6.7025   
     axis 0 0 -20   XYZ
    dof rx ry rz
    limits (-160.0 20.0)
           (-70.0 70.0)
           (-70.0 60.0)
  end
  begin
     id 8 
     name rtibia
     direction -0.34202 -0.939693 0   
     length 7.80547   
     axis 0 0 -20   XYZ
    dof rx
    limits (-10.0 170.0)
 end
 begin
     id 9 
     name rfoot
     direction -0.0756734 -0.207911 0.975216   
     length 2.40315  
     axis -90 -7.62852e-016 -20   XYZ
    dof rx rz
    limits (-45.0 90.0)
           (-20.0 70.0)
  end
  begin
     id 10 
     name rtoes
     direction -1.5353e-011 -4.21879e-011 1   
     length 1.20477   
     axis -90 -7.62852e-016 -20   XYZ
    dof rx
    limits (-90.0 20.0)
  end
  begin
     id 11 
     name lowerback
     direction 0.0160353 0.987463 -0.157037   
     length 2.18572   
     axis 0 0 0   XYZ
    dof rx ry rz
    limits (-20.0 45.0)
           (-30.0 30.0)
           (-30.0 30.0)
  end
  begin
     id 12 
     name upperback
     direction -0.00499661 0.999756 0.0215076   
     length 2.18016   
     axis 0 0 0   XYZ
    dof rx ry rz
    limits (-20.0 45.0)
           (-30.0 30.0)
           (-30.0 30.0)
  end
  begin
     id 13 
     name thorax
     direction -0.00921346 0.995333 0.0960619   
     length 2.24923   
     axis 0 0 0   XYZ
    dof rx ry rz
    limits (-20.0 45.0)
           (-30.0 30.0)
           (-30.0 30.0)
  end
  begin
     id 14 
     name lowerneck
     direction 0.0274184 0.991181 0.12965   
     length 1.70911   
     axis 0 0 0   XYZ
    dof rx ry rz
    limits (-20.0 45.0)
           (-30.0 30.0)
           (-30.0 30.0)
  end
  begin
     id 15 
     name upperneck
     direction 0.0015627 0.999959 -0.00893559   
     length 1.69312   
     axis 0 0 0   XYZ
    dof rx ry rz
    limits (-20.0 45.0)
           (-30.0 30.0)
           (-30.0 30.0)
  end
  begin
     id 16
     name head
     direction -0.00230242 0.999856 -0.0168327  
     length 1.80241  
     axis 0 0 0   XYZ
    dof rx ry rz
    limits (-20.0 45.0)
           (-30.0 30.0)
           (-30.0 30.0)
  end
  begin
     id 17 
     name lclavicle
     direction 0.955523 0.290741 -0.0494489  
     length 3.84275  
     axis 0 0 0   XYZ
    dof ry rz
    limits (-20.0 10.0)
           (0.0 20.0)
  end
  begin
     id 18 
     name lhumerus
     direction 1 -4.48967e-011 -3.18382e-028   
     length 5.17714   
     axis 180 -30 -90   XYZ
    dof rx ry rz
    limits (-60.0 90.0)
           (-90.0 90.0)
           (-90.0 90.0)
  end
  begin
     id 19
     name lradius
     direction 1 -4.48968e-011 -2.22911e-027   
     length 3.43679   
     axis 180 -30 -90   XYZ
    dof rx
    limits (-10.0 170.0)
  end
  begin
     id 20
     name lwrist
     direction 1 -4.48951e-011 -6.32245e-027   
     length 1.7184   
     axis 3.57107e-015 90 90   XYZ
    dof ry
    limits (-180.0 0.0)
 end
  begin
     id 21 
     name lhand
     direction 1 -4.48924e-011 -1.26431e-026   
     length 0.573117   
     axis 8.06912e-015 90 90   XYZ
    dof rx rz
    limits (-90.0 90.0)
           (-45.0 45.0)
  end
  begin
     id 22 
     name lfingers
     direction 1 -4.49001e-011 -2.52965e-026   
     length 0.462062   
     axis 1.61381e-014 90 90   XYZ
    dof rx
    limits (0.0 90.0)
  end
  begin
     id 23
     name lthumb
     direction 0.707107 -6.35008e-011 0.707107   
     length 0.663431   
     axis -90 45 -1.62303e-014   XYZ
    dof rx rz
    limits (-45.0 45.0)
           (-45.0 45.0)
  end
  begin
     id 24 
     name rclavicle
     direction -0.963917 0.256881 -0.0698287   
     length 3.73057  
     axis 0 0 0   XYZ 
    dof ry rz
    limits (-10.0 20.0)
           (-20.0 0.0)
  end
  begin
     id 25 
     name rhumerus
     direction -1 -4.48962e-011 -2.73982e-027  
     length 5.23908   
     axis 180 30 90   XYZ
    dof rx ry rz
    limits (-90.0 60.0)
           (-90.0 90.0)
           (-90.0 90.0)
  end
  begin
     id 26 
     name rradius
     direction -1 -4.48968e-011 -4.33218e-027   
     length 3.46485   
     axis 180 30 90   XYZ
    dof rx
    limits (-10.0 170.0)
  end
  begin
     id 27 
     name rwrist
     direction -1 -4.48989e-011 -6.32372e-027   
     length 1.73243   
     axis 3.57107e-015 -90 -90   XYZ
    dof ry
    limits (-180.0 0.0)
  end
  begin
     id 28
     name rhand
     direction -1 -4.48948e-011 -1.26448e-026   
     length 0.608752   
     axis 8.06912e-015 -90 -90   XYZ
    dof rx rz
    limits (-90.0 90.0)
           (-45.0 45.0)
  end
  begin
     id 29
     name rfingers
     direction -1 -4.48962e-011 -2.52913e-026   
     length 0.490792   
     axis 1.61381e-014 -90 -90   XYZ
    dof rx
    limits (0.0 90.0)
  end
  begin
     id 30
     name rthumb
     direction -0.707107 -6.34878e-011 0.707107   
     length 0.704682   
     axis -90 -45 1.62303e-014   XYZ
    dof rx rz
    limits (-45.0 45.0)
           (-45.0 45.0)
  end
:hierarchy
  begin
    root lhipjoint rhipjoint lowerback
    lhipjoint lfemur
    lfemur ltibia
    ltibia lfoot
    lfoot ltoes
    rhipjoint rfemur
    rfemur rtibia
    rtibia rfoot
    rfoot rtoes
    lowerback upperback
    upperback thorax
    thorax lowerneck lclavicle rclavicle
    lowerneck upperneck
    upperneck head
    lclavicle lhumerus
    lhumerus lradius
    lradius lwrist
    lwrist lhand lthumb
    lhand lfingers
    rclavicle rhumerus
    rhumerus rradius
    rradius rwrist
    rwrist rhand rthumb
    rhand rfingers
  end

#!OML:ASF G:\JayActor3\Patient Classification 1\Patient 1\Session 6\male.ASF
:FULLY-SPECIFIED
:DEGREES
1137
root 0.418679 16.4554 -3.16452 19.0292 -84.4364 -22.1403
lowerback 2.3641 -1.72885 1.78153
upperback -5.24488 -2.22955 1.17143
thorax -6.80466 -1.19516 0.413065
lowerneck 5.885 7.31576 6.43907
upperneck -1.44373 10.2891 6.24933
head -1.44075 4.89765 0.588734
rclavicle 1.21756e-014 -1.39149e-015
rhumerus -48.156 12.2465 -81.169
rradius 34.5888
rwrist 3.7382
rhand -10.41 -2.89126
rfingers 7.12502
rthumb 15.5888 -32.2831
lclavicle 1.21756e-014 -1.39149e-015
lhumerus -39.1592 -44.3007 92.037
lradius 48.7446
lwrist 29.571
lhand -4.05277 8.29015
lfingers 7.12502
lthumb 21.7033 37.0936
rfemur -2.88845 3.90995 20.4541
rtibia 31.6035
rfoot -27.4007 -17.9298
rtoes -0.0329009
lfemur 5.39695 5.53172 -12.4514
ltibia 15.0981
lfoot -15.5402 12.0657
ltoes -2.89469
1138
root 0.420975 16.4552 -3.16437 19.0328 -84.4148 -22.1705
lowerback 2.36068 -1.71841 1.79902
upperback -5.2396 -2.21497 1.16301
thorax -6.79797 -1.18901 0.393049
lowerneck 5.88016 7.31502 6.43821
upperneck -1.38348 10.2832 6.26493
head -1.42141 4.89733 0.595408
rclavicle 3.97569e-016 -1.07344e-014
rhumerus -48.1828 12.2701 -81.2185
rradius 34.5791
rwrist 3.73595
rhand -10.3905 -2.89661
rfingers 7.12502
rthumb 15.6076 -32.2869
lclavicle 3.97569e-016 -1.07344e-014
lhumerus -38.7113 -44.5241 91.8147
lradius 48.9526
lwrist 29.5411
lhand -3.88589 8.35292
lfingers 7.12502
lthumb 21.8635 37.1377
rfemur -2.85997 3.92309 20.4729
rtibia 31.5942
rfoot -27.4154 -17.9564
rtoes -0.00658657
lfemur 5.39749 5.5481 -12.4316
ltibia 15.1236
lfoot -15.5372 12.0278
ltoes -2.89275
1139
root 0.423299 16.4551 -3.16428 18.9996 -84.3897 -22.1594
lowerback 2.36144 -1.70922 1.81826
upperback -5.24157 -2.20213 1.15124
thorax -6.80165 -1.18403 0.369066
lowerneck 5.87449 7.31341 6.44013
upperneck -1.31292 10.2754 6.28145
head -1.3985 4.89655 0.602261
rclavicle -2.0276e-014 -3.97569e-016
rhumerus -48.2151 12.2914 -81.2715
rradius 34.5637
rwrist 3.73686
rhand -10.3711 -2.89726
rfingers 7.12502
rthumb 15.6263 -32.2861
lclavicle -2.0276e-014 -3.97569e-016
lhumerus -38.2821 -44.7562 91.5993
lradius 49.1763
lwrist 29.5213
lhand -3.72645 8.40965
lfingers 7.12502
lthumb 22.0166 37.1765
rfemur -2.83671 3.93312 20.4885
rtibia 31.587
rfoot -27.4331 -17.9824
rtoes 0.0273607
lfemur 5.39484 5.55939 -12.4159
ltibia 15.1433
lfoot -15.5291 11.9929
ltoes -2.89916
1140
root 0.425651 16.455 -3.16427 18.9155 -84.3637 -22.0978
lowerback 2.36884 -1.70181 1.83393
upperback -5.24745 -2.19181 1.13762
thorax -6.81329 -1.1802 0.345726
lowerneck 5.86858 7.31213 6.44597
upperneck -1.23673 10.2677 6.29518
head -1.37337 4.89616 0.607805
rclavicle 1.2921e-014 -6.55989e-015
rhumerus -48.2498 12.3097 -81.3231
rradius 34.5461
rwrist 3.74177
rhand -10.3517 -2.88975
rfingers 7.12502
rthumb 15.6449 -32.2772
lclavicle 1.2921e-014 -6.55989e-015
lhumerus -37.8652 -44.9905 91.3865
lradius 49.413
lwrist 29.499
lhand -3.57953 8.43324
lfingers 7.12502
lthumb 22.1577 37.1834
rfemur -2.81428 3.94289 20.4998
rtibia 31.5829
rfoot -27.4553 -18.0049
rtoes 0.0686679
lfemur 5.39437 5.57186 -12.4045
ltibia 15.1569
lfoot -15.5122 11.9593
ltoes -2.92942
1141
root 0.42793 16.4549 -3.16427 18.7508 -84.3401 -21.957
lowerback 2.38045 -1.69557 1.84248
upperback -5.25496 -2.18345 1.12178
thorax -6.82892 -1.17705 0.32439
lowerneck 5.86298 7.3129 6.44977
upperneck -1.15945 10.2626 6.3097
head -1.34813 4.8971 0.613849
rclavicle 1.73937e-014 1.94809e-014
rhumerus -48.2846 12.3253 -81.3707
rradius 34.5282
rwrist 3.74852
rhand -10.3331 -2.88609
rfingers 7.12502
rthumb 15.6628 -32.2721
lclavicle 1.73937e-014 1.94809e-014
lhumerus -37.457 -45.228 91.1734
lradius 49.6611
lwrist 29.4648
lhand -3.43841 8.41594
lfingers 7.12502
lthumb 22.2932 37.15
rfemur -2.79064 3.94618 20.5006
rtibia 31.5814
rfoot -27.4762 -18.0212
rtoes 0.102288
lfemur 5.39798 5.58706 -12.4015
ltibia 15.167
lfoot -15.4908 11.9247
ltoes -2.97302
1142
root 0.430087 16.4547 -3.16423 18.575 -84.3175 -21.8057
lowerback 2.38913 -1.69141 1.84675
upperback -5.25946 -2.17804 1.10858
thorax -6.83939 -1.17501 0.308231
lowerneck 5.85594 7.31742 6.45112
upperneck -1.08781 10.2626 6.3207
head -1.32441 4.9005 0.618989
rclavicle 2.98177e-016 -1.0138e-014
rhumerus -48.3102 12.3406 -81.4092
rradius 34.5108
rwrist 3.75752
rhand -10.328 -2.87062
rfingers 7.12502
rthumb 15.6678 -32.2562
lclavicle 2.98177e-016 -1.0138e-014
lhumerus -37.0411 -45.4611 90.9518
lradius 49.9145
lwrist 29.407
lhand -3.2943 8.35062
lfingers 7.12502
lthumb 22.4315 37.068
rfemur -2.76784 3.94508 20.4984
rtibia 31.5824
rfoot -27.4929 -18.0353
rtoes 0.123325
lfemur 5.40462 5.60268 -12.4001
ltibia 15.174
lfoot -15.471 11.889
ltoes -3.00165
1143
root 0.432238 16.4546 -3.16417 18.427 -84.2989 -21.6798
lowerback 2.39873 -1.68698 1.85193
upperback -5.26674 -2.17217 1.09672
thorax -6.85333 -1.17281 0.293048
lowerneck 5.85463 7.3239 6.45053
upperneck -1.02177 10.2661 6.33035
head -1.30351 4.90529 0.623563
rclavicle 2.27608e-014 8.74653e-015
rhumerus -48.3372 12.3535 -81.4413
rradius 34.4971
rwrist 3.76839
rhand -10.333 -2.855
rfingers 7.12502
rthumb 15.6629 -32.241
lclavicle 2.27608e-014 8.74653e-015
lhumerus -36.629 -45.695 90.728
lradius 50.1766
lwrist 29.3231
lhand -3.13924 8.26436
lfingers 7.12502
lthumb 22.5803 36.9638
rfemur -2.74908 3.94593 20.4968
rtibia 31.5845
rfoot -27.5073 -18.0476
rtoes 0.141469
lfemur 5.41061 5.6136 -12.3995
ltibia 15.1802
lfoot -15.4552 11.8585
ltoes -3.01668
